PathFileType	4	(X/Y/Z)	path1_05_0-945.trc
DataRate	CameraRate	NumFrames	NumMarkers	Units	OrigDataRate	OrigDataStartFrame	OrigNumFrames
30	30	7	22	m	30	0	945
Frame#	Time	Hip			RHip			RKnee			RAnkle			RBigToe			RSmallToe			RHeel			LHip			LKnee			LAnkle			LBigToe			LSmallToe			LHeel			Neck			Head			Nose			RShoulder			RElbow			RWrist			LShoulder			LElbow			LWrist		
		X1	Y1	Z1	X2	Y2	Z2	X3	Y3	Z3	X4	Y4	Z4	X5	Y5	Z5	X6	Y6	Z6	X7	Y7	Z7	X8	Y8	Z8	X9	Y9	Z9	X10	Y10	Z10	X11	Y11	Z11	X12	Y12	Z12	X13	Y13	Z13	X14	Y14	Z14	X15	Y15	Z15	X16	Y16	Z16	X17	Y17	Z17	X18	Y18	Z18	X19	Y19	Z19	X20	Y20	Z20	X21	Y21	Z21	X22	Y22	Z22
1	0.0333333333333333	-1.6687949548446992	0.812947603928875	0.2576126059329619	-1.6754409341967185	0.7996945736991178	0.34121064455356587	-1.6976516389462468	0.46256810462423786	0.30003914295270834	-1.724121599266568	0.11431750662494573	0.3047594224882042	-1.547837196539649	0.032015839838099996	0.3388298142615357	-1.58301424449028	0.037181989736137094	0.4005584515809591	-1.7632859059604744	0.05426394397622229	0.3127722607406483	-1.6519148494001081	0.7887665140710545	0.1885174278443469	-1.6883204135550676	0.4502530951439991	0.20417964751605208	-1.7256248825942782	0.10266912766468864	0.14694486609973034	-1.5522398463067992	0.018019176400525503	0.13931433557515582	-1.5875928419558967	0.012397581406356576	0.08050290478497324	-1.7760023863420649	0.024690018107492148	0.1679351411060272	-1.6527748637283808	1.4479137834134435	0.20577831270043556	-1.578904377991891	1.7316926640775698	0.26405226558975836	-1.5182496459114452	1.586138972737224	0.25475160592663415	-1.7137372304499832	1.3570341638910843	0.35695148216123146	-1.7033077037337774	1.056792995452005	0.39320482701159754	-1.6341551023347265	0.8540580470687723	0.42240808423242365	-1.6690528241894804	1.343897654953122	0.03429208125621347	-1.6730694318956458	1.0357534404804842	0.10443159060509948	-1.5801998077348116	0.8565727836148891	0.060051814202642544
2	0.0666666666666666	-1.6680268780120415	0.8147882485120594	0.25550473719862493	-1.6746303351610803	0.8012962320377349	0.3398356138612396	-1.6979207046695577	0.4659850818599825	0.29917641321928745	-1.7228557812511327	0.11685834296258299	0.30842231458786584	-1.5546761716196544	0.03252206883266125	0.33607050872889377	-1.5878304799231897	0.03561191730892318	0.3955033151152882	-1.7608339413013188	0.056684969350442795	0.31034629717053036	-1.6523065206428698	0.7919333397422066	0.18648600313747277	-1.682943663950166	0.4505809328120418	0.20175560366740047	-1.7146198569009325	0.10385647174328017	0.15540486006568782	-1.554247390184811	0.015822086127048916	0.13782285654208654	-1.5793554060633663	0.015894119675726254	0.0863683613326449	-1.7777412383558184	0.02283229836702383	0.16885133461847365	-1.6527857144154026	1.4476373925356005	0.2053634184643082	-1.5795686043494983	1.7287707041651246	0.26196163465820677	-1.5180041915995002	1.5862581326534253	0.24955928275849912	-1.7149978905186756	1.3557824044650544	0.35471229531682147	-1.7027462181741664	1.054775953881291	0.39171634976255365	-1.6245885679899914	0.8557666803673764	0.4386072613643944	-1.6719983125099163	1.337798297352873	0.07192812923969732	-1.6733778603234524	1.0359257739545298	0.10378989919637034	-1.578311768889288	0.8555434627925036	0.058808583618408815
3	0.1	-1.667397854036793	0.8164171029573547	0.25375739054408813	-1.6739783782741382	0.8028820400755072	0.3386808205685904	-1.6980217811445573	0.46894606177685727	0.29848510649061183	-1.7219317192840784	0.11962118902736997	0.31040693796673036	-1.5603087220119594	0.03297638095456077	0.33373466709741934	-1.5917736946864534	0.03434487754550202	0.391276029894358	-1.7589402861165244	0.05868947132416742	0.3082976672928212	-1.6524862871076236	0.7948675912343064	0.18473851328095278	-1.6787800369079615	0.45121340011795225	0.20009992462728793	-1.7056743748871936	0.10510484873164896	0.16204892095267012	-1.5556232138041854	0.014275830514275627	0.1363717913388068	-1.5719776775170966	0.019074213342429855	0.09130346750220628	-1.7791824303495993	0.021373965419689812	0.16951038266532514	-1.6529207215878494	1.4472859269916978	0.20486561618550184	-1.5797828520724528	1.7266919352712593	0.26083356161086213	-1.517883766548008	1.5861884907641006	0.24544197118468822	-1.7160457405274794	1.354808603535569	0.3529627494903802	-1.7023560675961138	1.053086843466557	0.3904584299679871	-1.616886282041585	0.8571877322202549	0.451589780832486	-1.6743475561504757	1.3330389039035686	0.10166772054128448	-1.6735984780763196	1.0360908874524188	0.10320635709590481	-1.5767295407614181	0.8546868112313097	0.05768799772221663
4	0.1333333333333333	-1.666977703934104	0.8176806516726512	0.25254326001940086	-1.6735742179371855	0.8042495633423897	0.3378497067912906	-1.6979237212548348	0.471081379649455	0.2980884341464243	-1.7214929501263958	0.12224811973047828	0.31058092183251057	-1.5641611941642397	0.03332350658009394	0.33198850883782627	-1.5944598683835987	0.03349236099054791	0.38825716796621035	-1.757826743449761	0.06009898902392131	0.3068451632755606	-1.652392325035009	0.7972003918646876	0.18351290915590343	-1.6763462934802145	0.4521110662580473	0.19944027806860587	-1.6997447238399166	0.10629626081931365	0.16612240109515936	-1.556187365860049	0.013561671384657524	0.13509389561764404	-1.566192440148359	0.021596888710305667	0.09479519022627526	-1.7801755213852504	0.020479036417908988	0.1698202056904373	-1.6531441063209045	1.4469088980469462	0.2043316679065073	-1.5795685325233	1.7256653806168343	0.2608868365003646	-1.517881948318667	1.5859916708913118	0.2430761673153341	-1.7167974565819137	1.3542264130493618	0.35197236658827574	-1.7021725596552488	1.0519090348097568	0.38954593099411927	-1.6119005014679735	0.8581580419225314	0.4599087956415735	-1.6757156493199716	1.330252628208886	0.11976242252652844	-1.673603167923783	1.036246307455291	0.10267815948369362	-1.5756351242097446	0.8541218763907601	0.056787979622644924
5	0.1666666666666666	-1.6667508974252518	0.8185116938131684	0.2518239811800651	-1.6733895582628335	0.8052000181486544	0.33728356456051595	-1.6976928804440534	0.4722475771705187	0.29800084209337063	-1.7214561273030238	0.12426127637904776	0.30983582802580056	-1.5663774156890464	0.03353128233232738	0.33075191743654675	-1.5960052608004165	0.03300995231675296	0.3863893114374005	-1.7573704790695448	0.06101103581019767	0.3060189374832837	-1.65209267786678	0.798680324533332	0.1828492814033461	-1.675011533401352	0.4528506136176603	0.19898257626542712	-1.6965615988613798	0.10725847224517536	0.16795204917673667	-1.556108402006234	0.013460016795588538	0.13411333024745814	-1.5619573800189663	0.023364747379263473	0.09712006193576414	-1.7807264128669902	0.020089445945662573	0.16985132083099155	-1.6533304281755938	1.44661255025619	0.20387508722574976	-1.5792294535723652	1.7253900299424605	0.26169588778482916	-1.5179260670134553	1.5858595158540838	0.24244854606801705	-1.7172592064901255	1.353967223334527	0.3517328836807908	-1.7021160553684547	1.0512631645223518	0.3889735999305393	-1.609397126481704	0.8586818844536477	0.4639744265505999	-1.6760689350844038	1.3293234795141287	0.12680375742925826	-1.6733330626530893	1.036385238087458	0.10218328749502172	-1.5750317147520092	0.8538901252322434	0.056159384906488106
6	0.2	-1.6666673954014484	0.8189336912131665	0.25144884589563116	-1.673352755562548	0.8057173025465573	0.3368410102422624	-1.697423411450693	0.47257560688396033	0.29810470963927	-1.7216195883032375	0.12555085477435476	0.3089574190459205	-1.567440573323235	0.03362051903454419	0.3298968594926073	-1.5967319219647407	0.03280661236803085	0.3854403724283147	-1.7573279001366129	0.06161930008399877	0.3057412603284816	-1.6517351179925166	0.7993490461092471	0.18257745970193334	-1.6737371257663627	0.45300966539718	0.19770947244980844	-1.695299470585954	0.10790372258768265	0.1683274538005197	-1.5556580544092342	0.013635727947177538	0.133456248463871	-1.5587924791045502	0.0245137843246305	0.09882744184280104	-1.7809308529352381	0.020042138341452076	0.16972741471988848	-1.6534061237654063	1.4464602868974654	0.2035678182830266	-1.578983827484889	1.72548235253585	0.26277745821323767	-1.5179980867648806	1.5858883266172512	0.24312540661540522	-1.7174725738555925	1.353886836927436	0.3520185582483294	-1.7020994758453285	1.0510744012939472	0.388669705273585	-1.6086109580259904	0.858872573196396	0.4650770366797411	-1.6756610849422695	1.3297565220850716	0.1255347400959101	-1.6728652219493203	1.0364876264745917	0.10172786004097552	-1.574810995951834	0.8539443778375183	0.05579390602127994
7	0.2333333333333333	-1.6667075912422475	0.8190319731050493	0.2512449115318173	-1.6734114845972332	0.8059041207801116	0.33641444285431094	-1.6972088459714065	0.47236756434980537	0.29821248601003914	-1.7217786649992102	0.12625383123381548	0.3083510016799266	-1.5677991379420535	0.03364713309814918	0.32934082373705964	-1.5969398382505517	0.032772377953503455	0.38515831512177806	-1.7574712940036388	0.06206670108386204	0.3059202756532926	-1.6515163150531615	0.7994197234632474	0.18246591108865104	-1.672169461780594	0.45254626449480173	0.19553636692503326	-1.69518990156767	0.10820904362671141	0.1680071241641581	-1.555134559579083	0.013804979247518641	0.13307343353894308	-1.5567001788242414	0.025134953328314415	0.09996242427745983	-1.7808945720563867	0.020144113961029508	0.16955736984565528	-1.653387695454877	1.4464548455871116	0.2034227771070683	-1.5788914356099544	1.725661333158615	0.26390339741910224	-1.518144323792979	1.586032102029285	0.24472639690890502	-1.7175067500576757	1.3538593310105598	0.35251651743851037	-1.702079506336984	1.051226900040746	0.38853833674946375	-1.608739238147526	0.8588595152502562	0.4645524832852533	-1.674871129412144	1.3309556094686865	0.11933815031244009	-1.6723484740931693	1.0365318639215617	0.10133530573876506	-1.5748630594857647	0.8541605181092587	0.05564951970833067
